<?xml version="1.0" standalone="no"?>
<!DOCTYPE svg PUBLIC "-//W3C//DTD SVG 20010904//EN"
 "http://www.w3.org/TR/2001/REC-SVG-20010904/DTD/svg10.dtd">
<svg version="1.0" xmlns="http://www.w3.org/2000/svg"
 width="4501.000000pt" height="4128.000000pt" viewBox="0 0 4501.000000 4128.000000"
 preserveAspectRatio="xMidYMid meet">

<g transform="translate(0.000000,4128.000000) scale(0.100000,-0.100000)"
fill="#000000" stroke="none">
<path d="M34900 37344 c-19 -2 -87 -9 -150 -15 -655 -61 -1338 -315 -1898
-706 -275 -191 -628 -522 -836 -783 -113 -141 -279 -385 -361 -530 -259 -455
-423 -947 -496 -1480 -26 -199 -37 -645 -20 -853 65 -778 340 -1500 809 -2121
209 -277 501 -569 777 -777 227 -171 420 -289 688 -419 402 -195 784 -309
1247 -372 144 -20 208 -23 510 -23 370 0 483 9 755 61 1245 239 2289 1022
2861 2149 223 440 353 880 416 1410 20 171 17 694 -5 875 -84 680 -309 1285
-675 1821 -598 875 -1502 1477 -2532 1688 -273 56 -446 73 -765 76 -159 2
-306 1 -325 -1z"/>
<path d="M21520 36554 c-36 -2 -159 -8 -275 -14 -3375 -173 -6666 -1421 -9295
-3525 -2826 -2263 -4800 -5327 -5669 -8800 -541 -2164 -632 -4459 -265 -6660
494 -2957 1766 -5677 3716 -7945 528 -614 1134 -1220 1748 -1748 1922 -1652
4178 -2824 6625 -3440 2070 -522 4218 -634 6340 -332 2696 385 5261 1447 7445
3084 629 471 1147 922 1751 1526 581 580 991 1045 1450 1645 1602 2093 2675
4565 3113 7170 150 896 214 1616 223 2545 8 817 -25 1457 -112 2146 -81 644
-310 1200 -701 1704 -161 207 -447 480 -679 646 -402 288 -893 491 -1387 573
-194 33 -284 40 -593 51 -774 27 -1428 132 -2121 339 -1123 336 -2136 901
-3054 1705 -148 130 -556 538 -686 686 -323 369 -611 756 -841 1130 -719 1169
-1131 2497 -1193 3840 -29 622 -39 726 -100 995 -62 275 -186 602 -322 850
-77 142 -224 362 -329 495 -112 141 -388 415 -529 524 -504 391 -1059 619
-1704 701 -240 30 -666 70 -991 91 -231 15 -1369 28 -1565 18z m995 -7114
c1578 -77 3016 -510 4343 -1307 642 -385 1213 -833 1762 -1383 271 -270 468
-490 685 -760 1788 -2232 2430 -5163 1744 -7958 -597 -2434 -2176 -4523 -4374
-5785 -237 -136 -681 -357 -925 -461 -819 -350 -1661 -575 -2545 -681 -634
-77 -1241 -17 -1815 180 -788 270 -1460 765 -1968 1450 -318 429 -565 950
-696 1471 -234 928 -132 1894 289 2753 80 162 222 411 235 411 4 0 54 -43 111
-97 1038 -965 2515 -1314 3884 -918 217 63 414 139 632 245 435 211 751 437
1099 784 327 328 561 650 762 1052 203 406 337 850 399 1329 25 195 25 769 0
957 -116 859 -439 1580 -988 2202 -662 749 -1541 1211 -2554 1343 -197 25
-769 25 -960 0 -817 -109 -1516 -411 -2120 -916 -124 -104 -359 -335 -468
-461 -865 -998 -1184 -2365 -855 -3655 166 -651 492 -1249 952 -1744 53 -57
96 -107 96 -110 0 -11 -181 -118 -332 -196 -1079 -556 -2314 -600 -3442 -124
-911 385 -1663 1084 -2096 1949 -274 546 -410 1095 -427 1715 -8 309 18 588
97 1060 363 2149 1468 4082 3145 5499 1061 898 2325 1546 3675 1885 862 217
1801 313 2655 271z"/>
</g>
</svg>
